<svg id="svg" xmlns="http://www.w3.org/2000/svg" xmlns:xlink="http://www.w3.org/1999/xlink" width="370" height="390" viewBox="0, 0, 370, 390"><g id="svgg"><path id="path0" d="M180.553 30.377 C 174.681 32.056,169.884 37.211,169.168 42.611 C 168.659 46.445,169.204 46.285,156.343 46.402 C 142.771 46.526,142.892 46.494,141.158 50.405 C 140.183 52.602,139.986 52.715,136.426 53.110 C 135.123 53.255,132.280 53.731,130.109 54.169 C 127.937 54.607,124.945 55.208,123.461 55.505 C 121.976 55.802,120.199 56.221,119.512 56.437 C 118.825 56.653,115.864 57.569,112.932 58.473 C 108.231 59.923,101.210 62.554,97.730 64.171 C 87.240 69.043,78.487 74.288,70.758 80.332 C 68.520 82.082,66.032 84.016,65.230 84.629 C 59.276 89.177,45.309 104.298,41.890 109.897 C 40.653 111.923,40.868 114.696,42.389 116.336 C 44.379 118.482,47.707 117.967,56.663 114.128 C 64.505 110.767,72.246 107.953,80.158 105.588 C 85.742 103.919,87.699 103.371,89.832 102.879 C 91.135 102.578,94.067 101.897,96.347 101.366 C 98.628 100.834,101.382 100.279,102.468 100.131 C 103.554 99.984,105.597 99.618,107.009 99.318 C 113.469 97.945,123.875 96.710,133.754 96.142 C 139.281 95.824,140.396 96.046,141.214 97.627 C 143.017 101.114,143.334 101.190,156.308 101.270 C 167.498 101.338,167.540 101.341,168.270 102.243 C 169.445 103.693,169.393 127.942,168.213 129.121 C 167.432 129.902,166.897 129.911,120.002 129.911 C 67.972 129.911,71.545 129.748,69.694 132.215 C 68.923 133.242,68.902 133.968,68.798 162.653 L 68.692 192.039 69.713 193.512 C 71.227 195.698,68.982 195.598,120.030 195.750 C 173.936 195.912,169.134 195.575,168.922 199.179 C 168.733 202.396,172.647 202.159,119.531 202.166 L 72.230 202.172 70.567 203.723 L 68.904 205.274 68.793 234.226 C 68.666 267.151,68.552 265.816,71.619 267.301 C 73.287 268.108,73.647 268.115,120.362 268.115 C 173.871 268.115,169.003 267.785,169.003 271.410 C 169.003 274.937,173.781 274.617,119.506 274.724 C 73.600 274.814,71.631 274.848,70.683 275.551 C 68.685 277.033,68.679 277.135,68.796 308.223 L 68.904 337.153 69.891 338.223 C 71.976 340.482,69.476 340.375,120.334 340.375 C 175.221 340.375,168.854 339.615,169.078 346.193 C 169.870 369.469,201.351 367.368,201.379 344.037 C 201.384 340.063,199.356 340.340,227.559 340.465 L 251.874 340.573 255.525 344.463 C 268.125 357.889,283.829 363.822,302.187 362.092 C 305.056 361.821,308.115 361.382,308.983 361.116 C 309.852 360.850,311.984 360.215,313.722 359.705 C 326.334 356.005,339.570 344.568,345.461 332.280 C 346.190 330.760,347.043 328.983,347.357 328.332 C 351.187 320.368,352.573 304.035,350.173 295.163 C 344.014 272.401,328.512 257.487,306.614 253.260 C 300.935 252.163,301.513 254.872,301.283 228.303 C 301.100 207.066,301.036 205.416,300.364 204.391 C 298.841 202.069,301.185 202.172,249.788 202.172 L 202.611 202.172 201.997 201.294 C 201.135 200.064,201.197 197.329,202.104 196.507 C 202.767 195.907,206.594 195.854,249.074 195.854 C 297.946 195.854,298.446 195.836,300.150 194.023 C 302.150 191.895,302.284 134.082,300.294 131.883 C 298.422 129.814,300.876 129.912,250.464 129.905 C 213.443 129.901,203.346 129.794,202.567 129.400 L 201.579 128.901 201.475 116.031 C 201.378 103.944,201.416 103.105,202.112 102.246 L 202.853 101.331 212.483 101.422 C 225.782 101.547,226.466 101.372,229.474 97.076 C 230.557 95.530,245.695 96.310,258.835 98.589 C 261.876 99.117,265.917 99.804,267.816 100.117 C 271.116 100.661,272.266 100.911,275.814 101.857 C 276.683 102.089,278.460 102.530,279.763 102.839 C 282.694 103.532,286.671 104.661,293.682 106.788 C 296.959 107.783,308.886 112.165,310.241 112.872 C 314.383 115.035,322.559 117.739,324.474 117.580 C 329.126 117.195,330.664 111.953,327.232 108.181 C 326.744 107.645,325.642 106.318,324.783 105.232 C 318.987 97.905,311.677 90.270,305.811 85.417 C 304.283 84.153,302.194 82.424,301.168 81.573 C 300.141 80.723,297.926 79.071,296.245 77.902 C 293.393 75.919,291.885 74.917,286.871 71.669 C 284.692 70.258,272.449 63.968,271.880 63.968 C 271.684 63.968,270.800 63.628,269.917 63.213 C 266.486 61.597,264.595 60.860,260.217 59.431 C 257.720 58.615,255.321 57.793,254.886 57.604 C 254.156 57.286,248.384 55.918,243.238 54.843 C 242.043 54.594,240.089 54.158,238.894 53.874 C 237.700 53.590,235.238 53.233,233.424 53.081 L 230.125 52.803 229.034 50.390 C 227.213 46.364,227.337 46.397,213.936 46.394 C 201.007 46.391,202.027 46.699,200.941 42.462 C 198.534 33.067,189.621 27.784,180.553 30.377 M187.278 40.818 C 189.282 41.672,190.404 43.125,190.255 44.675 C 190.008 47.258,179.996 47.373,179.744 44.796 C 179.442 41.714,183.881 39.370,187.278 40.818 M218.141 57.757 C 219.170 59.328,219.102 89.070,218.066 90.105 C 217.322 90.850,216.441 90.870,184.959 90.852 L 152.616 90.835 151.925 89.993 C 150.784 88.604,150.875 58.800,152.024 57.651 C 152.801 56.874,153.340 56.861,185.183 56.861 L 217.553 56.861 218.141 57.757 M140.559 64.337 C 140.808 64.803,140.967 68.789,140.967 74.543 C 140.967 86.282,141.615 85.304,133.560 85.726 C 125.943 86.126,114.582 87.245,110.168 88.030 C 107.814 88.449,100.512 89.778,97.335 90.367 C 93.033 91.163,78.046 95.190,73.609 96.742 C 64.966 99.765,65.765 97.330,76.042 89.333 C 79.714 86.475,86.547 81.737,86.996 81.737 C 87.106 81.737,88.145 81.108,89.304 80.338 C 92.068 78.502,103.043 73.129,107.799 71.284 C 109.862 70.483,112.172 69.585,112.932 69.289 C 113.692 68.992,116.535 68.136,119.250 67.387 C 123.575 66.193,126.147 65.601,133.860 64.022 C 137.185 63.341,140.099 63.478,140.559 64.337 M236.723 64.151 C 242.355 65.156,249.795 66.956,253.899 68.306 C 257.002 69.328,262.568 71.400,264.028 72.078 C 264.712 72.396,265.393 72.655,265.540 72.655 C 266.516 72.655,279.121 79.257,283.058 81.830 C 283.635 82.207,284.462 82.689,284.896 82.901 C 285.331 83.113,286.930 84.183,288.450 85.279 C 289.970 86.375,291.887 87.721,292.708 88.269 C 293.530 88.818,294.516 89.572,294.898 89.944 C 295.281 90.317,296.635 91.504,297.909 92.581 C 303.429 97.254,304.066 98.813,299.985 97.662 C 296.624 96.715,295.755 96.461,291.412 95.158 C 289.131 94.474,285.577 93.466,283.514 92.918 C 277.228 91.249,276.275 91.045,263.376 88.607 C 258.610 87.706,244.380 86.141,237.190 85.727 C 228.598 85.232,229.418 86.404,229.418 74.614 C 229.418 62.091,228.947 62.765,236.723 64.151 M190.326 102.108 C 190.982 102.757,191.258 344.499,190.606 347.570 C 189.622 352.207,184.074 353.685,180.754 350.194 L 179.269 348.634 179.269 225.501 C 179.269 127.471,179.370 102.285,179.763 101.966 C 181.011 100.953,189.269 101.064,190.326 102.108 M168.125 140.792 C 169.279 141.600,169.502 155.084,168.388 156.674 L 167.774 157.552 145.555 157.552 L 123.336 157.552 122.531 156.663 C 122.088 156.175,121.247 154.942,120.663 153.925 C 119.778 152.386,117.679 150.193,115.893 148.944 C 107.968 143.397,95.015 147.989,91.887 157.454 C 85.721 176.109,110.143 187.546,121.051 171.112 C 123.141 167.964,121.618 168.147,145.771 168.145 C 172.081 168.142,169.005 167.014,168.997 176.665 C 168.990 184.706,168.976 184.757,166.556 185.209 C 163.264 185.824,80.770 185.636,79.916 185.012 C 78.865 184.243,78.532 142.687,79.565 141.111 L 80.176 140.178 123.712 140.178 C 162.476 140.178,167.344 140.245,168.125 140.792 M290.139 140.792 L 291.017 141.407 291.017 162.857 C 291.017 182.327,290.957 184.356,290.364 184.848 C 289.819 185.300,282.499 185.390,246.199 185.390 C 209.900 185.390,202.580 185.300,202.035 184.848 C 200.863 183.876,201.073 169.617,202.270 168.838 C 203.027 168.346,207.689 168.242,233.564 168.138 C 261.750 168.025,264.062 167.965,265.245 167.318 C 267.725 165.963,268.587 161.920,266.864 159.729 C 265.106 157.495,265.993 157.552,233.006 157.552 L 202.611 157.552 201.997 156.674 C 200.956 155.188,201.102 142.037,202.172 140.967 C 203.264 139.875,288.587 139.705,290.139 140.792 M111.255 158.930 C 113.023 160.698,113.027 160.708,112.856 163.070 C 112.331 170.335,102.165 170.537,101.564 163.295 C 101.100 157.693,107.249 154.924,111.255 158.930 M167.963 213.257 L 169.003 214.075 168.997 221.253 C 168.994 225.200,168.842 228.665,168.660 228.953 C 167.997 229.999,164.935 230.157,144.943 230.180 C 121.888 230.207,123.422 230.420,121.065 226.859 C 119.179 224.008,117.803 222.699,114.709 220.811 L 112.340 219.366 107.404 219.357 L 102.468 219.348 99.567 220.898 C 90.670 225.651,88.267 237.088,94.472 245.148 C 100.715 253.256,113.795 253.267,119.712 245.170 C 120.727 243.781,122.000 242.113,122.542 241.461 L 123.528 240.276 145.434 240.276 C 166.423 240.276,167.376 240.308,168.172 241.029 C 169.422 242.160,169.457 255.814,168.213 257.058 C 167.168 258.104,81.358 258.326,79.937 257.288 C 78.738 256.411,78.738 213.876,79.937 212.999 C 81.390 211.937,166.602 212.186,167.963 213.257 M290.402 213.316 C 291.287 214.579,291.335 250.506,290.453 251.764 C 290.027 252.373,288.946 252.741,286.011 253.279 C 282.680 253.889,278.413 255.190,272.853 257.291 C 271.747 257.709,264.598 257.817,237.041 257.831 L 202.611 257.848 201.997 256.970 C 201.033 255.595,201.097 242.487,202.073 241.302 L 202.764 240.463 233.564 240.368 C 263.055 240.277,264.410 240.242,265.469 239.525 C 268.165 237.702,268.587 233.686,266.309 231.537 L 264.899 230.207 236.003 230.193 C 204.135 230.178,202.744 230.148,202.056 229.461 C 201.400 228.806,201.154 215.182,201.778 214.016 C 202.579 212.519,203.464 212.489,246.868 212.463 L 289.787 212.438 290.402 213.316 M110.651 230.431 C 115.141 233.788,112.609 240.863,106.917 240.867 C 101.199 240.872,99.349 232.308,104.549 229.907 C 106.055 229.212,109.406 229.500,110.651 230.431 M304.274 263.371 C 326.791 267.468,342.350 287.391,340.973 310.360 C 340.824 312.855,340.453 315.610,340.149 316.481 C 339.845 317.352,339.594 318.379,339.591 318.764 C 339.540 324.963,330.273 338.252,321.816 344.253 C 317.527 347.297,315.458 348.279,308.353 350.638 C 303.040 352.402,290.142 352.532,284.699 350.876 C 262.267 344.052,249.077 324.120,251.894 301.304 C 254.113 283.339,268.842 267.242,286.278 263.727 C 287.473 263.486,289.072 263.151,289.832 262.983 C 292.593 262.372,299.854 262.567,304.274 263.371 M253.219 268.361 C 255.686 268.699,255.841 269.560,253.883 272.037 C 253.043 273.099,252.179 274.078,251.962 274.212 C 251.746 274.346,240.597 274.470,227.186 274.488 L 202.804 274.521 202.093 273.643 C 201.115 272.436,201.157 269.919,202.172 268.904 C 202.973 268.103,247.852 267.625,253.219 268.361 M291.807 275.064 C 282.636 276.767,275.034 280.964,274.561 284.585 C 273.990 288.954,278.692 290.979,282.834 288.148 C 292.534 281.518,309.018 283.677,314.076 292.239 C 317.310 297.714,311.108 301.920,306.265 297.537 C 292.560 285.137,273.985 303.629,286.021 317.690 C 290.873 323.359,300.711 323.392,306.690 317.759 C 311.873 312.877,317.880 319.944,312.801 324.949 C 307.368 330.302,298.787 332.846,292.068 331.096 C 290.817 330.770,289.437 330.503,289.000 330.503 C 288.564 330.503,287.373 330.032,286.354 329.455 C 285.335 328.879,284.146 328.205,283.712 327.958 C 283.277 327.711,282.300 327.117,281.540 326.638 C 276.776 323.638,271.784 330.242,276.082 333.858 C 287.857 343.766,308.212 342.281,319.158 330.716 C 338.808 309.953,325.306 276.227,296.873 275.050 C 294.629 274.957,292.349 274.963,291.807 275.064 M162.163 285.052 C 169.524 285.107,169.005 284.464,168.997 293.513 C 168.991 301.014,168.946 301.278,167.548 302.014 C 166.252 302.696,124.949 302.643,123.594 301.957 C 123.051 301.682,121.859 300.338,120.944 298.970 C 116.909 292.931,109.178 289.688,103.455 291.632 C 98.764 293.225,92.800 297.579,92.791 299.418 C 92.790 299.684,92.549 300.361,92.256 300.923 C 89.059 307.049,91.536 315.906,97.730 320.489 C 105.158 325.987,117.309 323.219,121.428 315.090 C 121.947 314.066,122.661 313.117,123.015 312.981 C 124.614 312.368,167.220 312.715,168.125 313.349 C 169.516 314.323,169.493 328.585,168.099 329.498 C 167.313 330.013,161.582 330.104,123.840 330.198 L 80.484 330.306 79.728 329.374 C 79.006 328.482,78.973 327.537,78.973 307.781 C 78.973 285.412,78.991 285.217,81.027 285.022 C 82.156 284.913,146.576 284.938,162.163 285.052 M243.838 285.258 C 245.145 285.586,245.098 286.180,243.277 292.317 C 242.581 294.660,241.903 297.496,241.771 298.618 C 241.608 299.987,241.232 300.956,240.626 301.562 L 239.722 302.465 221.383 302.368 C 198.867 302.248,201.382 303.351,201.382 293.598 C 201.382 285.642,201.500 285.214,203.751 285.017 C 206.477 284.779,242.799 284.997,243.838 285.258 M300.152 300.412 C 304.485 302.668,305.971 307.315,303.732 311.602 C 299.468 319.762,287.348 316.527,287.931 307.384 C 288.338 300.990,294.506 297.471,300.152 300.412 M110.817 302.896 C 115.017 306.759,112.811 313.119,107.267 313.127 C 101.322 313.135,99.119 304.973,104.346 302.305 C 106.208 301.355,109.464 301.652,110.817 302.896 M240.660 313.270 C 241.133 313.616,241.573 314.771,241.901 316.528 C 242.643 320.498,243.535 324.161,244.200 325.962 C 245.799 330.298,246.936 330.071,223.296 330.141 L 202.808 330.203 202.095 329.322 C 201.065 328.050,201.014 314.585,202.036 313.457 C 202.903 312.498,239.363 312.322,240.660 313.270 " stroke="none" fill="#fff" fill-rule="evenodd"></path></g></svg>
