<svg xmlns="http://www.w3.org/2000/svg" viewBox="0 0 20.327 20.328"><defs><style>.a{fill:#fff;}</style></defs><path class="a" d="M17.7,6.4c0-1.2,0-2.3,0-3.5c0-0.3-0.1-0.4-0.3-0.4C14.9,1.7,12.3,1,9.8,0.3c-0.1,0-0.3,0-0.4,0
	C6.8,1,4.3,1.7,1.7,2.5C1.5,2.5,1.4,2.6,1.4,2.9c0,2.2,0,4.4,0,6.6c0,1.1,0.2,2.1,0.6,3c1.2,2.7,3.3,4.6,5.9,5.9
	c1.1,0.6,2.2,0.5,3.3,0c1.7-0.8,3.1-1.9,4.3-3.4c1.4-1.7,2.3-3.7,2.2-6C17.7,8.2,17.7,7.3,17.7,6.4z M10.7,10.1
	c0.4,0.9,0.7,1.8,1.1,2.6c0.1,0.3,0.1,0.3-0.2,0.3c-0.7,0-1.4,0-2,0c-0.7,0-1.4,0-2,0c-0.3,0-0.3-0.1-0.2-0.3
	c0.4-0.9,0.7-1.8,1.1-2.7C8.7,9.5,8.6,9.4,8.1,9C7.4,8.5,7.1,7.5,7.3,6.6C7.5,5.7,8.4,5,9.2,4.9c0.9-0.1,1.7,0.2,2.2,1
	c0.5,0.7,0.6,1.5,0.2,2.3C11.5,8.5,11.3,8.8,11,9C10.5,9.4,10.5,9.5,10.7,10.1z"/>
</svg>
